<svg width="148" height="29" viewBox="0 0 148 29" fill="none" xmlns="http://www.w3.org/2000/svg">
<path d="M6.22656 2.375C6.35677 2.375 7.63281 2.29688 10.0547 2.14062C10.2891 2.86979 10.8229 4.22396 11.6562 6.20312C12.4896 8.15625 13.5052 10.5521 14.7031 13.3906C15.9271 16.2031 16.9036 18.5208 17.6328 20.3438C17.6328 20.3958 17.6719 20.4219 17.75 20.4219C17.8281 20.4219 17.8672 20.3828 17.8672 20.3047C20.1589 14.8099 21.9818 10.2917 23.3359 6.75L24.7422 2.21875C25.5234 2.29688 26.5911 2.33594 27.9453 2.33594C28.9609 2.33594 30.5104 2.27083 32.5938 2.14062C32.6719 2.24479 32.7109 2.45312 32.7109 2.76562C32.7109 3.20833 32.6589 3.42969 32.5547 3.42969H32.4766C31.7734 3.42969 31.1354 3.63802 30.5625 4.05469C30.1719 4.34115 30.0026 5.04427 30.0547 6.16406C30.1589 8.48177 30.3411 13.8594 30.6016 22.2969C30.6276 23.7031 30.8359 24.901 31.2266 25.8906C31.3307 26.125 31.6953 26.3464 32.3203 26.5547C32.9453 26.737 33.388 26.8281 33.6484 26.8281C33.7526 26.8281 33.8047 27.0625 33.8047 27.5312C33.8047 27.7656 33.7786 27.9609 33.7266 28.1172C30.6016 27.9609 29 27.8828 28.9219 27.8828C28.401 27.8828 27.8542 27.8958 27.2812 27.9219C26.7083 27.9479 26.0703 27.974 25.3672 28C24.6901 28.0521 24.1432 28.0911 23.7266 28.1172C23.6224 28.013 23.5703 27.8177 23.5703 27.5312C23.5703 27.0625 23.6224 26.8281 23.7266 26.8281C24.013 26.8281 24.4297 26.75 24.9766 26.5938C25.5234 26.4115 25.888 26.2161 26.0703 26.0078C26.3307 25.6693 26.4609 25.2135 26.4609 24.6406V22.4531L26.0703 10.5781C25.9661 8.96354 25.8099 8.15625 25.6016 8.15625C25.5234 8.15625 25.4583 8.23438 25.4062 8.39062L17.9453 26.5938C17.5026 27.5833 17.0078 28.0781 16.4609 28.0781C16.3568 28.0781 16.2266 28.0521 16.0703 28L7.32031 6.98438C7.13802 13.4688 6.92969 19.276 6.69531 24.4062C6.69531 24.9792 6.73438 25.3828 6.8125 25.6172C6.94271 25.9036 7.46354 26.1771 8.375 26.4375C9.28646 26.6979 9.89844 26.8281 10.2109 26.8281C10.3151 26.8281 10.3672 27.0625 10.3672 27.5312C10.3672 27.7656 10.3411 27.9609 10.2891 28.1172C7.16406 27.9609 5.52344 27.8828 5.36719 27.8828C4.66406 27.8828 3.72656 27.9219 2.55469 28C1.40885 28.0781 0.705729 28.1172 0.445312 28.1172C0.341146 28.013 0.289062 27.8047 0.289062 27.4922C0.289062 27.0495 0.341146 26.8281 0.445312 26.8281C0.861979 26.8281 1.51302 26.6979 2.39844 26.4375C3.28385 26.1771 3.79167 25.8385 3.92188 25.4219C4.15625 24.9531 4.29948 24.0807 4.35156 22.8047C4.40365 20.8255 4.46875 18.4948 4.54688 15.8125C4.65104 13.1042 4.72917 10.7995 4.78125 8.89844C4.85938 6.9974 4.89844 5.8125 4.89844 5.34375C4.89844 4.84896 4.85938 4.48438 4.78125 4.25C4.70312 4.04167 4.26042 3.84635 3.45312 3.66406C2.67188 3.48177 2.11198 3.39062 1.77344 3.39062C1.66927 3.39062 1.61719 3.16927 1.61719 2.72656C1.61719 2.4401 1.66927 2.24479 1.77344 2.14062C2.16406 2.16667 2.82812 2.21875 3.76562 2.29688C4.72917 2.34896 5.54948 2.375 6.22656 2.375ZM44.3125 12.5703C43.0885 12.5703 42.138 13.1693 41.4609 14.3672C40.7839 15.5391 40.4453 16.9453 40.4453 18.5859C40.4453 20.6953 40.862 22.5312 41.6953 24.0938C42.5547 25.6562 43.7396 26.4375 45.25 26.4375C46.474 26.4375 47.4245 25.8385 48.1016 24.6406C48.8047 23.4427 49.1562 22.0365 49.1562 20.4219C49.1562 19.0677 48.987 17.8177 48.6484 16.6719C48.3099 15.5 47.763 14.5234 47.0078 13.7422C46.2526 12.9609 45.3542 12.5703 44.3125 12.5703ZM44.8203 10.7344C47.2682 10.7344 49.3516 11.5938 51.0703 13.3125C52.8151 15.0052 53.6875 17.0625 53.6875 19.4844C53.6875 21.9062 52.8281 23.9766 51.1094 25.6953C49.4167 27.4141 47.3333 28.2734 44.8594 28.2734C42.3854 28.2734 40.2891 27.4141 38.5703 25.6953C36.8516 23.9766 35.9922 21.9062 35.9922 19.4844C35.9922 17.0365 36.8385 14.9661 38.5312 13.2734C40.25 11.5807 42.3464 10.7344 44.8203 10.7344ZM64.2344 12.5312C62.8542 12.5312 61.8125 13.1172 61.1094 14.2891C60.4062 15.4609 60.0547 17.0365 60.0547 19.0156C60.0547 21.2292 60.4583 22.9609 61.2656 24.2109C62.0729 25.4349 63.2057 26.0469 64.6641 26.0469C65.5495 26.0469 66.2656 25.8255 66.8125 25.3828C67.3594 24.9141 67.6328 24.3281 67.6328 23.625V15.4219C67.6328 15.1615 67.5807 14.888 67.4766 14.6016C67.3984 14.3151 67.2422 14.0156 67.0078 13.7031C66.7995 13.3646 66.4479 13.0911 65.9531 12.8828C65.4844 12.6484 64.9115 12.5312 64.2344 12.5312ZM64.5859 10.6562C65.7057 10.6562 66.6562 10.8385 67.4375 11.2031C67.5677 11.2031 67.6328 10.9948 67.6328 10.5781V6.90625C67.6328 5.91667 67.5547 5.03125 67.3984 4.25C67.2682 3.83333 66.5911 3.625 65.3672 3.625H65.0547C64.8984 3.625 64.8203 3.41667 64.8203 3C64.8203 2.58333 64.8984 2.375 65.0547 2.375C65.8359 2.29688 66.5911 2.19271 67.3203 2.0625C68.0755 1.93229 68.6875 1.80208 69.1562 1.67188C69.651 1.54167 70.0677 1.41146 70.4062 1.28125C70.7708 1.15104 71.0443 1.0599 71.2266 1.00781C71.4089 0.929688 71.513 0.890625 71.5391 0.890625H71.6172C71.7214 0.890625 71.8255 0.96875 71.9297 1.125C72.0339 1.25521 72.0859 1.38542 72.0859 1.51562C71.8255 2.53125 71.6953 3.75521 71.6953 5.1875V22.375C71.6953 23.5729 71.7734 24.5365 71.9297 25.2656C71.9557 25.4479 72.0859 25.5911 72.3203 25.6953C72.5547 25.7995 72.8021 25.8646 73.0625 25.8906C73.3229 25.9167 73.5703 25.9427 73.8047 25.9688C74.0391 25.9688 74.1693 25.9688 74.1953 25.9688C74.2474 26.0208 74.2734 26.1771 74.2734 26.4375C74.2734 26.9583 74.1953 27.2188 74.0391 27.2188C73.6745 27.2448 73.2057 27.2969 72.6328 27.375C72.0859 27.4531 71.5391 27.5443 70.9922 27.6484C70.4714 27.7266 69.9635 27.8177 69.4688 27.9219C69 28 68.6094 28.0651 68.2969 28.1172C68.0104 28.1953 67.8672 28.2344 67.8672 28.2344C67.7109 28.2344 67.6328 28.013 67.6328 27.5703V26.9062C67.6328 26.8281 67.6068 26.776 67.5547 26.75C67.5286 26.724 67.5026 26.724 67.4766 26.75C66.2266 27.7135 64.8724 28.1953 63.4141 28.1953C61.3047 28.1953 59.4688 27.4271 57.9062 25.8906C56.3438 24.3281 55.5625 22.375 55.5625 20.0312C55.5625 17.4531 56.4479 15.2526 58.2188 13.4297C60.0156 11.5807 62.138 10.6562 64.5859 10.6562ZM83.8438 12.5312C83.2188 12.5312 82.6589 12.7135 82.1641 13.0781C81.6693 13.4427 81.2917 13.8854 81.0312 14.4062C80.7708 14.9271 80.5755 15.4219 80.4453 15.8906C80.3411 16.3333 80.2891 16.7109 80.2891 17.0234C80.2891 17.2057 80.3672 17.2969 80.5234 17.2969H86.8516C87.0859 17.2969 87.2031 17.1016 87.2031 16.7109C87.2031 15.7995 86.8906 14.875 86.2656 13.9375C85.6667 13 84.8594 12.5312 83.8438 12.5312ZM84.1172 10.7344C85.3411 10.7344 86.4349 10.9818 87.3984 11.4766C88.362 11.9453 89.1172 12.5573 89.6641 13.3125C90.2109 14.0417 90.6276 14.8099 90.9141 15.6172C91.2005 16.3984 91.3438 17.1536 91.3438 17.8828C91.3438 18.4557 91.2396 18.8203 91.0312 18.9766C90.849 19.1068 90.4583 19.1719 89.8594 19.1719H80.5234C80.3411 19.1719 80.25 19.25 80.25 19.4062C80.25 20.3438 80.4193 21.2552 80.7578 22.1406C81.0964 23.026 81.6693 23.7943 82.4766 24.4453C83.3099 25.0964 84.2995 25.4219 85.4453 25.4219C85.8359 25.4219 86.2135 25.4089 86.5781 25.3828C86.9427 25.3307 87.2812 25.2656 87.5938 25.1875C87.9062 25.0833 88.1797 24.9922 88.4141 24.9141C88.6484 24.8359 88.8828 24.7188 89.1172 24.5625C89.3776 24.4062 89.5599 24.3021 89.6641 24.25C89.7682 24.1719 89.9245 24.0677 90.1328 23.9375C90.3411 23.7812 90.4453 23.7031 90.4453 23.7031C90.4974 23.7292 90.5625 23.8073 90.6406 23.9375C90.7188 24.0677 90.7578 24.1979 90.7578 24.3281C90.7578 24.6146 90.6797 24.862 90.5234 25.0703C90.1328 25.7734 89.3646 26.4766 88.2188 27.1797C87.0729 27.8828 85.7839 28.2344 84.3516 28.2344C82.0859 28.2344 80.1328 27.401 78.4922 25.7344C76.8516 24.0417 76.0312 21.9974 76.0312 19.6016C76.0312 16.9714 76.7865 14.8359 78.2969 13.1953C79.8333 11.5547 81.7734 10.7344 84.1172 10.7344ZM104.586 10.7344C106.018 10.7344 107.086 11.1641 107.789 12.0234C107.789 14.237 107.164 15.3438 105.914 15.3438C105.445 15.3438 104.938 15.0833 104.391 14.5625C103.844 14.0417 103.284 13.7812 102.711 13.7812C101.904 13.7812 101.266 14.1979 100.797 15.0312C100.354 15.8385 100.133 16.6849 100.133 17.5703V22.4531C100.133 24.0417 100.224 25.2135 100.406 25.9688C100.458 26.151 100.797 26.3464 101.422 26.5547C102.073 26.737 102.516 26.8281 102.75 26.8281C102.828 26.8281 102.867 27.0234 102.867 27.4141C102.893 27.7786 102.893 28.026 102.867 28.1562C102.659 28.1302 101.969 28.0781 100.797 28C99.625 27.9219 98.7396 27.8828 98.1406 27.8828C97.5156 27.8828 96.6042 27.9219 95.4062 28C94.2344 28.0781 93.5443 28.1302 93.3359 28.1562C93.2318 28.0521 93.1797 27.8047 93.1797 27.4141C93.1797 27.0234 93.2318 26.8281 93.3359 26.8281C93.6484 26.8281 94.1172 26.737 94.7422 26.5547C95.3932 26.3464 95.7448 26.151 95.7969 25.9688C95.9792 25.1875 96.0703 24.237 96.0703 23.1172V16.75C96.0703 15.526 95.862 14.6927 95.4453 14.25C95.237 13.9896 94.9375 13.7943 94.5469 13.6641C94.1823 13.5339 93.8698 13.4557 93.6094 13.4297C93.375 13.4036 93.2578 13.3646 93.2578 13.3125C93.2578 12.5573 93.3229 12.1667 93.4531 12.1406C94.651 12.0365 96.7474 11.6458 99.7422 10.9688C99.7422 10.9688 99.7812 10.9557 99.8594 10.9297C99.9635 10.9036 100.029 10.8906 100.055 10.8906C100.159 10.8906 100.25 10.9818 100.328 11.1641C100.406 11.3464 100.432 11.5026 100.406 11.6328C100.406 11.737 100.393 11.9193 100.367 12.1797C100.341 12.4141 100.302 12.6745 100.25 12.9609C100.224 13.2214 100.211 13.3906 100.211 13.4688C100.68 12.7656 101.318 12.1406 102.125 11.5938C102.932 11.0208 103.753 10.7344 104.586 10.7344ZM122.711 10.7344C126.07 10.7344 127.75 13.4036 127.75 18.7422V22.4531C127.75 24.0417 127.841 25.2135 128.023 25.9688C128.076 26.151 128.427 26.3464 129.078 26.5547C129.755 26.737 130.211 26.8281 130.445 26.8281C130.523 26.8281 130.562 27.0234 130.562 27.4141C130.589 27.7786 130.576 28.026 130.523 28.1562C130.367 28.1302 129.677 28.0781 128.453 28C127.255 27.9219 126.357 27.8828 125.758 27.8828C125.133 27.8828 124.26 27.9219 123.141 28C122.047 28.0781 121.383 28.1302 121.148 28.1562C121.044 28.0521 120.992 27.8047 120.992 27.4141C120.992 27.0234 121.044 26.8281 121.148 26.8281C121.435 26.8281 121.865 26.737 122.438 26.5547C123.036 26.3464 123.362 26.151 123.414 25.9688C123.622 25.1875 123.727 24.237 123.727 23.1172V19.4062C123.727 17.2448 123.427 15.7344 122.828 14.875C122.255 14.0156 121.331 13.5859 120.055 13.5859C119.221 13.5859 118.492 13.8203 117.867 14.2891C117.242 14.7318 116.93 15.2135 116.93 15.7344V22.4531C116.93 24.0417 117.021 25.2135 117.203 25.9688C117.255 26.151 117.594 26.3464 118.219 26.5547C118.87 26.737 119.299 26.8281 119.508 26.8281C119.612 26.8281 119.664 27.0234 119.664 27.4141C119.69 27.7786 119.677 28.026 119.625 28.1562C119.417 28.1302 118.727 28.0781 117.555 28C116.409 27.9219 115.536 27.8828 114.938 27.8828C114.312 27.8828 113.401 27.9219 112.203 28C111.031 28.0781 110.341 28.1302 110.133 28.1562C110.029 28.0521 109.977 27.8047 109.977 27.4141C109.977 27.0234 110.029 26.8281 110.133 26.8281C110.445 26.8281 110.914 26.737 111.539 26.5547C112.19 26.3464 112.542 26.151 112.594 25.9688C112.776 25.1875 112.867 24.237 112.867 23.1172V16.75C112.867 15.526 112.659 14.6927 112.242 14.25C112.034 13.9896 111.734 13.7943 111.344 13.6641C110.979 13.5339 110.667 13.4557 110.406 13.4297C110.172 13.4036 110.055 13.3646 110.055 13.3125C110.055 12.5573 110.12 12.1667 110.25 12.1406C111.448 12.0365 113.544 11.6458 116.539 10.9688C116.565 10.9427 116.591 10.9297 116.617 10.9297C116.669 10.9036 116.708 10.8906 116.734 10.8906C116.786 10.8906 116.826 10.8906 116.852 10.8906C116.956 10.8906 117.047 10.9818 117.125 11.1641C117.203 11.3464 117.242 11.4896 117.242 11.5938C117.138 12.3229 117.086 12.7917 117.086 13C117.086 13.1042 117.099 13.1693 117.125 13.1953C117.151 13.1953 117.216 13.1562 117.32 13.0781C117.945 12.4531 118.74 11.9062 119.703 11.4375C120.693 10.9688 121.695 10.7344 122.711 10.7344ZM140.484 12.5312C139.859 12.5312 139.299 12.7135 138.805 13.0781C138.31 13.4427 137.932 13.8854 137.672 14.4062C137.411 14.9271 137.216 15.4219 137.086 15.8906C136.982 16.3333 136.93 16.7109 136.93 17.0234C136.93 17.2057 137.008 17.2969 137.164 17.2969H143.492C143.727 17.2969 143.844 17.1016 143.844 16.7109C143.844 15.7995 143.531 14.875 142.906 13.9375C142.307 13 141.5 12.5312 140.484 12.5312ZM140.758 10.7344C141.982 10.7344 143.076 10.9818 144.039 11.4766C145.003 11.9453 145.758 12.5573 146.305 13.3125C146.852 14.0417 147.268 14.8099 147.555 15.6172C147.841 16.3984 147.984 17.1536 147.984 17.8828C147.984 18.4557 147.88 18.8203 147.672 18.9766C147.49 19.1068 147.099 19.1719 146.5 19.1719H137.164C136.982 19.1719 136.891 19.25 136.891 19.4062C136.891 20.3438 137.06 21.2552 137.398 22.1406C137.737 23.026 138.31 23.7943 139.117 24.4453C139.951 25.0964 140.94 25.4219 142.086 25.4219C142.477 25.4219 142.854 25.4089 143.219 25.3828C143.583 25.3307 143.922 25.2656 144.234 25.1875C144.547 25.0833 144.82 24.9922 145.055 24.9141C145.289 24.8359 145.523 24.7188 145.758 24.5625C146.018 24.4062 146.201 24.3021 146.305 24.25C146.409 24.1719 146.565 24.0677 146.773 23.9375C146.982 23.7812 147.086 23.7031 147.086 23.7031C147.138 23.7292 147.203 23.8073 147.281 23.9375C147.359 24.0677 147.398 24.1979 147.398 24.3281C147.398 24.6146 147.32 24.862 147.164 25.0703C146.773 25.7734 146.005 26.4766 144.859 27.1797C143.714 27.8828 142.424 28.2344 140.992 28.2344C138.727 28.2344 136.773 27.401 135.133 25.7344C133.492 24.0417 132.672 21.9974 132.672 19.6016C132.672 16.9714 133.427 14.8359 134.938 13.1953C136.474 11.5547 138.414 10.7344 140.758 10.7344Z" fill="white"/>
</svg>
