<svg width="149" height="29" viewBox="0 0 149 29" fill="none" xmlns="http://www.w3.org/2000/svg">
<path d="M18.417 0.319999C18.5504 0.106665 18.737 -1.90735e-06 18.977 -1.90735e-06H22.657C22.7904 -1.90735e-06 22.897 0.0533315 22.977 0.159998C23.0837 0.239999 23.137 0.346666 23.137 0.479999V27.52C23.137 27.6533 23.0837 27.7733 22.977 27.88C22.897 27.96 22.7904 28 22.657 28H18.977C18.8437 28 18.7237 27.96 18.617 27.88C18.537 27.7733 18.497 27.6533 18.497 27.52V8.44C18.497 8.36 18.457 8.30667 18.377 8.28C18.3237 8.25333 18.2837 8.28 18.257 8.36L13.257 16.04C13.1237 16.2533 12.937 16.36 12.697 16.36H10.857C10.617 16.36 10.4304 16.2533 10.297 16.04L5.25703 8.4C5.23036 8.32 5.17703 8.29333 5.09703 8.32C5.0437 8.34667 5.01703 8.4 5.01703 8.48V27.52C5.01703 27.6533 4.9637 27.7733 4.85703 27.88C4.77703 27.96 4.67036 28 4.53703 28H0.857031C0.723698 28 0.603698 27.96 0.497031 27.88C0.417031 27.7733 0.377032 27.6533 0.377032 27.52V0.479999C0.377032 0.346666 0.417031 0.239999 0.497031 0.159998C0.603698 0.0533315 0.723698 -1.90735e-06 0.857031 -1.90735e-06H4.53703C4.77703 -1.90735e-06 4.9637 0.106665 5.09703 0.319999L11.617 10.2C11.6704 10.2533 11.7237 10.28 11.777 10.28C11.8304 10.28 11.8704 10.2533 11.897 10.2L18.417 0.319999ZM37.2108 28.32C35.1041 28.32 33.2908 27.7867 31.7708 26.72C30.2774 25.6533 29.2241 24.1733 28.6108 22.28C28.1574 20.84 27.9308 19.32 27.9308 17.72C27.9308 16.0133 28.1441 14.4933 28.5708 13.16C29.1841 11.2933 30.2508 9.84 31.7708 8.8C33.2908 7.76 35.1174 7.24 37.2508 7.24C39.2774 7.24 41.0241 7.76 42.4908 8.8C43.9841 9.84 45.0374 11.28 45.6508 13.12C46.1308 14.4 46.3708 15.92 46.3708 17.68C46.3708 19.36 46.1441 20.88 45.6908 22.24C45.0774 24.1333 44.0241 25.6267 42.5308 26.72C41.0374 27.7867 39.2641 28.32 37.2108 28.32ZM37.2108 24.32C38.1974 24.32 39.0374 24.04 39.7308 23.48C40.4508 22.92 40.9708 22.1333 41.2908 21.12C41.5574 20.24 41.6908 19.12 41.6908 17.76C41.6908 16.32 41.5574 15.2 41.2908 14.4C40.9974 13.3867 40.4908 12.6133 39.7708 12.08C39.0508 11.52 38.1708 11.24 37.1308 11.24C36.1441 11.24 35.2908 11.52 34.5708 12.08C33.8508 12.6133 33.3308 13.3867 33.0108 14.4C32.7441 15.3333 32.6108 16.4533 32.6108 17.76C32.6108 19.0667 32.7441 20.1867 33.0108 21.12C33.3041 22.1333 33.8108 22.92 34.5308 23.48C35.2774 24.04 36.1708 24.32 37.2108 24.32ZM63.4373 0.479999C63.4373 0.346666 63.4773 0.239999 63.5573 0.159998C63.664 0.0533315 63.784 -1.90735e-06 63.9173 -1.90735e-06H67.5973C67.7307 -1.90735e-06 67.8373 0.0533315 67.9173 0.159998C68.024 0.239999 68.0773 0.346666 68.0773 0.479999V27.52C68.0773 27.6533 68.024 27.7733 67.9173 27.88C67.8373 27.96 67.7307 28 67.5973 28H63.9173C63.784 28 63.664 27.96 63.5573 27.88C63.4773 27.7733 63.4373 27.6533 63.4373 27.52V26.32C63.4373 26.24 63.4107 26.1867 63.3573 26.16C63.304 26.1333 63.2507 26.16 63.1973 26.24C62.024 27.6267 60.4907 28.32 58.5973 28.32C56.704 28.32 55.104 27.8267 53.7973 26.84C52.4907 25.8533 51.544 24.48 50.9573 22.72C50.4773 21.2267 50.2373 19.56 50.2373 17.72C50.2373 15.8267 50.464 14.2 50.9173 12.84C51.504 11.08 52.4507 9.70667 53.7573 8.72C55.064 7.73333 56.704 7.24 58.6773 7.24C60.5173 7.24 62.024 7.90667 63.1973 9.24C63.2507 9.29333 63.304 9.32 63.3573 9.32C63.4107 9.29333 63.4373 9.24 63.4373 9.16V0.479999ZM62.4773 22.4C63.0907 21.3067 63.3973 19.76 63.3973 17.76C63.3973 15.68 63.064 14.0933 62.3973 13C61.6773 11.8267 60.664 11.24 59.3573 11.24C57.9973 11.24 56.9307 11.8 56.1573 12.92C55.3573 14.0933 54.9573 15.72 54.9573 17.8C54.9573 19.6667 55.2773 21.2 55.9173 22.4C56.664 23.68 57.7973 24.32 59.3173 24.32C60.6773 24.32 61.7307 23.68 62.4773 22.4ZM90.3411 15.48C90.4478 16.1467 90.5011 16.8933 90.5011 17.72L90.4611 18.96C90.4611 19.28 90.3011 19.44 89.9811 19.44H77.4611C77.3278 19.44 77.2611 19.5067 77.2611 19.64C77.3411 20.52 77.4611 21.12 77.6211 21.44C78.2611 23.36 79.8211 24.3333 82.3011 24.36C84.1144 24.36 85.5544 23.6133 86.6211 22.12C86.7278 21.96 86.8611 21.88 87.0211 21.88C87.1278 21.88 87.2211 21.92 87.3011 22L89.7811 24.04C90.0211 24.2267 90.0611 24.44 89.9011 24.68C89.0744 25.8533 87.9678 26.76 86.5811 27.4C85.2211 28.04 83.7011 28.36 82.0211 28.36C79.9411 28.36 78.1678 27.8933 76.7011 26.96C75.2611 26.0267 74.2078 24.72 73.5411 23.04C72.9278 21.6 72.6211 19.6 72.6211 17.04C72.6211 15.4933 72.7811 14.24 73.1011 13.28C73.6344 11.4133 74.6344 9.94667 76.1011 8.88C77.5944 7.78667 79.3811 7.24 81.4611 7.24C86.7144 7.24 89.6744 9.98666 90.3411 15.48ZM81.4611 11.24C80.4744 11.24 79.6478 11.4933 78.9811 12C78.3411 12.48 77.8878 13.16 77.6211 14.04C77.4611 14.4933 77.3544 15.08 77.3011 15.8C77.2478 15.9333 77.3011 16 77.4611 16H85.5811C85.7144 16 85.7811 15.9333 85.7811 15.8C85.7278 15.1333 85.6478 14.6267 85.5411 14.28C85.3011 13.32 84.8211 12.5733 84.1011 12.04C83.4078 11.5067 82.5278 11.24 81.4611 11.24ZM104.262 7.32C105.115 7.32 105.862 7.49333 106.502 7.84C106.715 7.94667 106.795 8.14667 106.742 8.44L106.062 12.04C106.035 12.36 105.848 12.4533 105.502 12.32C105.102 12.1867 104.635 12.12 104.102 12.12C103.755 12.12 103.488 12.1333 103.302 12.16C102.182 12.2133 101.248 12.6133 100.502 13.36C99.7551 14.08 99.3817 15.0267 99.3817 16.2V27.52C99.3817 27.6533 99.3284 27.7733 99.2217 27.88C99.1417 27.96 99.0351 28 98.9017 28H95.2217C95.0884 28 94.9684 27.96 94.8617 27.88C94.7817 27.7733 94.7417 27.6533 94.7417 27.52V8.04C94.7417 7.90667 94.7817 7.8 94.8617 7.72C94.9684 7.61333 95.0884 7.56 95.2217 7.56H98.9017C99.0351 7.56 99.1417 7.61333 99.2217 7.72C99.3284 7.8 99.3817 7.90667 99.3817 8.04V9.84C99.3817 9.94667 99.3951 10.0133 99.4217 10.04C99.4751 10.04 99.5284 10 99.5817 9.92C100.702 8.18667 102.262 7.32 104.262 7.32ZM119.581 7.24C121.741 7.24 123.461 7.88 124.741 9.16C126.047 10.44 126.701 12.1867 126.701 14.4V27.52C126.701 27.6533 126.647 27.7733 126.541 27.88C126.461 27.96 126.354 28 126.221 28H122.541C122.407 28 122.287 27.96 122.181 27.88C122.101 27.7733 122.061 27.6533 122.061 27.52V15.36C122.061 14.1333 121.714 13.1467 121.021 12.4C120.327 11.6267 119.407 11.24 118.261 11.24C117.114 11.24 116.181 11.6133 115.461 12.36C114.767 13.1067 114.421 14.0933 114.421 15.32V27.52C114.421 27.6533 114.367 27.7733 114.261 27.88C114.181 27.96 114.074 28 113.941 28H110.261C110.127 28 110.007 27.96 109.901 27.88C109.821 27.7733 109.781 27.6533 109.781 27.52V8.04C109.781 7.90667 109.821 7.8 109.901 7.72C110.007 7.61333 110.127 7.56 110.261 7.56H113.941C114.074 7.56 114.181 7.61333 114.261 7.72C114.367 7.8 114.421 7.90667 114.421 8.04V9.32C114.421 9.4 114.447 9.45333 114.501 9.48C114.554 9.50667 114.594 9.48 114.621 9.4C115.714 7.96 117.367 7.24 119.581 7.24ZM148.622 15.48C148.729 16.1467 148.782 16.8933 148.782 17.72L148.742 18.96C148.742 19.28 148.582 19.44 148.262 19.44H135.742C135.609 19.44 135.542 19.5067 135.542 19.64C135.622 20.52 135.742 21.12 135.902 21.44C136.542 23.36 138.102 24.3333 140.582 24.36C142.396 24.36 143.836 23.6133 144.902 22.12C145.009 21.96 145.142 21.88 145.302 21.88C145.409 21.88 145.502 21.92 145.582 22L148.062 24.04C148.302 24.2267 148.342 24.44 148.182 24.68C147.356 25.8533 146.249 26.76 144.862 27.4C143.502 28.04 141.982 28.36 140.302 28.36C138.222 28.36 136.449 27.8933 134.982 26.96C133.542 26.0267 132.489 24.72 131.822 23.04C131.209 21.6 130.902 19.6 130.902 17.04C130.902 15.4933 131.062 14.24 131.382 13.28C131.916 11.4133 132.916 9.94667 134.382 8.88C135.876 7.78667 137.662 7.24 139.742 7.24C144.996 7.24 147.956 9.98666 148.622 15.48ZM139.742 11.24C138.756 11.24 137.929 11.4933 137.262 12C136.622 12.48 136.169 13.16 135.902 14.04C135.742 14.4933 135.636 15.08 135.582 15.8C135.529 15.9333 135.582 16 135.742 16H143.862C143.996 16 144.062 15.9333 144.062 15.8C144.009 15.1333 143.929 14.6267 143.822 14.28C143.582 13.32 143.102 12.5733 142.382 12.04C141.689 11.5067 140.809 11.24 139.742 11.24Z" fill="white"/>
</svg>
